HIERARCHY
ROOT Hips
{
  OFFSET -35.4901 99.2528 17.4586
  CHANNELS 6 Xposition Yposition Zposition Zrotation Xrotation Yrotation
  JOINT LeftUpLeg
  {
    OFFSET 8.64259 1.95398 -2.38835
    CHANNELS 3 Zrotation Xrotation Yrotation
    JOINT LeftLeg
    {
      OFFSET 43.7702 0 0
      CHANNELS 3 Zrotation Xrotation Yrotation
      JOINT LeftFoot
      {
        OFFSET 40.6238 0 0
        CHANNELS 3 Zrotation Xrotation Yrotation
        JOINT LeftToeBase
        {
          OFFSET 12.7242 0 0
          CHANNELS 3 Zrotation Xrotation Yrotation
          End Site
          {
            OFFSET 0 0 0
          }
        }
      }
    }
  }
  JOINT RightUpLeg
  {
    OFFSET -8.2249 1.95398 -2.59336
    CHANNELS 3 Zrotation Xrotation Yrotation
    JOINT RightLeg
    {
      OFFSET 43.5653 0 0
      CHANNELS 3 Zrotation Xrotation Yrotation
      JOINT RightFoot
      {
        OFFSET 40.6238 0 0
        CHANNELS 3 Zrotation Xrotation Yrotation
        JOINT RightToeBase
        {
          OFFSET 12.7242 0 0
          CHANNELS 3 Zrotation Xrotation Yrotation
          End Site
          {
            OFFSET 0 0 0
          }
        }
      }
    }
  }
  JOINT Spine
  {
    OFFSET 0.165834 0.87714 6.61349
    CHANNELS 3 Zrotation Xrotation Yrotation
    JOINT Spine1
    {
      OFFSET 7.38963 1.71661e-005 0
      CHANNELS 3 Zrotation Xrotation Yrotation
      JOINT Spine2
      {
        OFFSET 11.9445 1.14441e-005 0
        CHANNELS 3 Zrotation Xrotation Yrotation
        JOINT Spine3
        {
          OFFSET 14.7254 4.19617e-005 0
          CHANNELS 3 Zrotation Xrotation Yrotation
          JOINT Spine4
          {
            OFFSET 10.9679 0 0
            CHANNELS 3 Zrotation Xrotation Yrotation
            JOINT RightShoulder
            {
              OFFSET 2.46616 -1.6653 3.69651
              CHANNELS 3 Zrotation Xrotation Yrotation
              JOINT RightArm
              {
                OFFSET 13.0012 0 0
                CHANNELS 3 Zrotation Xrotation Yrotation
                JOINT RightForeArm
                {
                  OFFSET 28.7848 1.52588e-005 0
                  CHANNELS 3 Zrotation Xrotation Yrotation
                  JOINT RightHand
                  {
                    OFFSET 26.5688 1.52588e-005 0
                    CHANNELS 3 Zrotation Xrotation Yrotation
                    End Site
                    {
                      OFFSET 0 0 0
                    }
                  }
                }
              }
            }
            JOINT LeftShoulder
            {
              OFFSET 2.38034 -1.29275 -3.7523
              CHANNELS 3 Zrotation Xrotation Yrotation
              JOINT LeftArm
              {
                OFFSET 16.3182 6.10351e-005 0
                CHANNELS 3 Zrotation Xrotation Yrotation
                JOINT LeftForeArm
                {
                  OFFSET 27.0901 0 0
                  CHANNELS 3 Zrotation Xrotation Yrotation
                  JOINT LeftHand
                  {
                    OFFSET 24.5451 1.52588e-005 0
                    CHANNELS 3 Zrotation Xrotation Yrotation
                    End Site
                    {
                      OFFSET 0 0 0
                    }
                  }
                }
              }
            }
            JOINT Neck
            {
              OFFSET 5.0226 -0.0266342 0
              CHANNELS 3 Zrotation Xrotation Yrotation
              JOINT Head
              {
                OFFSET 6.69364 2.86102e-005 0
                CHANNELS 3 Zrotation Xrotation Yrotation
                End Site
                {
                  OFFSET 0 0 0
                }
              }
            }
          }
        }
      }
    }
  }
}
MOTION
Frames:	6
Frame Time:	0.0416667
-255.052 55.8723 -234.47 117.824 -39.2844 126.563 156.434 60.6836 154.727 -123.978 18.6791 11.9128 88.0653 16.4469 0.877014 40.9038 -0.90473 0.604479 146.381 40.5608 84.5636 -114.322 -15.35 -1.58375 104.615 -20.5704 2.86627 26.5286 0.119141 0.0139967 1.6292 16.7466 -92.635 -6.60308 2.39519 -4.74642 -18.2809 2.18424 -4.84694 -40.785 3.71002 -3.80897 -20.7724 3.71002 -3.80899 73.4707 -35.166 -133.834 -23.0947 -7.86472 -50.8564 12.6319 -51.1338 0.0108461 -44.2071 -7.31231 11.2387 -90.372 -27.0205 71.5019 -5.5135 8.10787 -76.1543 7.67074 55.1453 -12.4865 16.2382 2.70895 12.5933 30.8196 -6.49186 0.407349 -0.919091 -6.38401 -6.05941 
-254.912 55.7527 -234.4 117.898 -39.0683 126.717 156.099 60.446 155.002 -124.175 18.4065 11.852 88.4679 16.5441 0.551887 40.7801 -0.816915 0.423834 146.263 40.3559 84.2278 -114.452 -15.7255 -1.60123 104.672 -20.6697 2.74878 26.6894 0.109439 0.015987 1.63809 16.7695 -92.6399 -6.6487 2.41195 -4.75174 -18.3264 2.20073 -4.853 -40.8309 3.72759 -3.80904 -20.8182 3.72759 -3.80904 73.3734 -35.3671 -133.86 -23.5996 -8.20235 -50.8166 12.461 -50.1569 -0.0353162 -43.0547 -6.9702 10.9121 -90.1895 -26.6219 71.7098 -5.94957 8.17635 -76.2541 7.86272 55.8415 -12.4576 16.2162 2.68063 12.4467 30.6863 -6.1389 -0.356387 -1.32632 -5.71315 -4.58191 
-254.909 55.5773 -234.423 117.347 -39.2141 126.514 154.868 60.7656 155.886 -124.392 18.3074 11.7963 88.387 16.443 0.623419 41.0807 -0.937228 0.659696 145.828 40.8016 84.7535 -114.696 -15.6775 -1.61517 104.584 -20.6395 2.51334 26.9741 -0.00500016 0.269701 1.64933 16.7205 -92.6624 -6.55034 2.42561 -4.79686 -18.2282 2.21241 -4.89866 -40.7319 3.75413 -3.84803 -20.7193 3.75414 -3.84802 73.2019 -35.5427 -134.023 -24.1469 -8.47673 -50.7053 12.1354 -49.7591 -0.536161 -43.0806 -6.98345 10.9761 -90.2893 -26.6572 71.5248 -6.68152 8.15963 -76.059 7.72098 56.3633 -11.9354 16.9951 2.82266 12.5658 30.6254 -5.78877 -0.412951 -1.61344 -5.34531 -4.09285 
-255.055 55.3348 -234.479 116.251 -39.6915 126.082 152.523 61.4421 157.767 -124.486 17.8703 11.6725 88.2798 16.1574 0.398055 41.1824 -0.952154 0.682939 145.217 41.7454 86.1404 -114.91 -14.9702 -1.62206 104.525 -20.3149 2.82246 26.5532 -0.0799642 0.515764 1.67466 16.6317 -92.6799 -6.37198 2.46728 -4.83196 -18.05 2.25248 -4.93557 -40.5536 3.8044 -3.86901 -20.541 3.8044 -3.86903 73.3965 -35.4288 -133.782 -23.4623 -8.18621 -51.0379 12.1297 -50.3848 -0.177053 -42.7464 -6.955 11.0019 -90.234 -26.4268 71.5455 -6.8788 8.26424 -75.7659 8.41007 56.0353 -12.5995 16.6883 2.77262 12.5755 30.3518 -5.28339 -0.219088 -1.34332 -4.95601 -4.22475 
-255.286 55.0708 -234.453 114.983 -40.2253 125.579 149.681 62.0684 160.178 -124.517 17.47 11.5515 88.4099 15.9124 0.0825013 41.0889 -1.02939 0.861953 144.954 42.5346 88.2503 -115.297 -12.9656 -1.60061 105.581 -20.5285 2.65608 26.2612 -0.110631 0.631031 1.72554 16.5519 -92.7088 -6.21095 2.55603 -4.88231 -17.889 2.33895 -4.98975 -40.3934 3.90418 -3.8904 -20.3808 3.90417 -3.89041 73.552 -35.4511 -133.514 -23.502 -7.86553 -51.5388 12.017 -50.3214 0.0101787 -43.4241 -6.92463 10.5899 -90.1947 -26.9402 71.822 -6.13797 7.93315 -76.1515 6.87776 54.6584 -11.5498 20.9025 3.61324 13.4735 31.123 -5.10234 -0.079408 -1.7009 -4.82183 -4.30462 
-255.458 54.6862 -234.623 113.241 -41.0815 124.94 145.588 62.9917 163.657 -124.763 16.7801 11.3586 88.2756 15.4648 -0.537952 41.0835 -1.23943 1.32567 143.664 44.2184 90.4573 -115.566 -12.7542 -1.62531 104.676 -19.8678 2.90102 27.7319 0.0317546 0.0627717 1.78475 16.4032 -92.7293 -5.91186 2.6616 -4.92074 -17.5898 2.44271 -5.03278 -40.0957 4.0164 -3.89533 -20.0831 4.01638 -3.89537 73.6243 -35.2644 -133.518 -24.2212 -8.12563 -52.0995 12.3189 -49.5836 0.010267 -43.2231 -6.75466 10.2777 -90.0967 -26.9656 72.0251 -6.31593 7.98488 -76.1705 5.93783 53.435 -10.571 23.5273 3.96883 13.1507 31.2818 -4.84821 0.128754 -1.61456 -4.6679 -4.46436 
